<?xml version="1.0" encoding="UTF-8"?>
<svg width="6px" height="7px" viewBox="0 0 6 7" version="1.1" xmlns="http://www.w3.org/2000/svg" xmlns:xlink="http://www.w3.org/1999/xlink">
    <g id="Website" stroke="none" stroke-width="1" fill="none" fill-rule="evenodd">
        <g id="Web-layout---Desktop-HD" transform="translate(-526.000000, -457.000000)" fill="#FF9800">
            <g id="Task-manager" transform="translate(-2.000000, 0.000000)">
                <g id="Cards" transform="translate(203.000000, 263.000000)">
                    <g id="Kagiso" transform="translate(296.000000, 0.000000)">
                        <g id="Sticky-task">
                            <g id="Status-alert" transform="translate(25.185520, 186.981308)">
                                <g id="Status" transform="translate(0.000000, 3.280374)">
                                    <g id="Magic-stick-icon" transform="translate(4.380090, 4.373832)">
                                        <path d="M5.38471784,0.961820926 C5.38471784,1.02195779 5.36472579,1.07201036 5.32461853,1.1121426 L1.02345354,5.40719385 C0.983305226,5.44732608 0.933140362,5.46728972 0.872958946,5.46728972 C0.812736478,5.46728972 0.762612666,5.44728509 0.722423303,5.40719385 L0.0602224676,4.74589328 C0.0200331044,4.70580204 4.26325641e-14,4.65574947 4.26325641e-14,4.5956126 C4.26325641e-14,4.53547574 0.0200331044,4.48538218 0.0602224676,4.44529093 L4.36134641,0.150280677 C4.40149472,0.110189432 4.45161853,0.0901438101 4.511841,0.0901438101 C4.57206347,0.0901438101 4.62218728,0.110189432 4.66233559,0.150280677 L5.32457748,0.811581242 C5.36472579,0.851631494 5.38471784,0.901725052 5.38471784,0.961820926 Z M3.88970637,1.94040803 L4.86964538,0.961820926 L4.51179995,0.604443147 L3.53186094,1.58303025 L3.88970637,1.94040803 Z M0.765937833,0.854951934 L0.665608105,0.527663085 L0.33785338,0.427475967 L0.665608105,0.327288849 L0.765937833,-3.62553204e-15 L0.866267561,0.327288849 L1.19402229,0.427475967 L0.866267561,0.527663085 L0.765937833,0.854951934 Z M1.63548951,1.26914614 L0.979939008,1.06873091 L1.63548951,0.868315682 L1.83619002,0.21369699 L2.03689052,0.868315682 L2.69244102,1.06873091 L2.03689052,1.26914614 L1.83619002,1.92376483 L1.63548951,1.26914614 Z M5.14731735,2.46475067 L5.47511312,2.56493779 L5.14731735,2.66512491 L5.04698762,2.99237276 L4.94669894,2.66512491 L4.61894422,2.56493779 L4.94669894,2.46475067 L5.04698762,2.13746182 L5.14731735,2.46475067 Z M2.90648325,0.854951934 L2.80615352,0.527663085 L2.4783988,0.427475967 L2.80615352,0.327288849 L2.90648325,-3.62553204e-15 L3.00681298,0.327288849 L3.3345677,0.427475967 L3.00681298,0.527663085 L2.90648325,0.854951934 Z" id="Combined-Shape"></path>
                                    </g>
                                </g>
                            </g>
                        </g>
                    </g>
                </g>
            </g>
        </g>
    </g>
</svg>