<?xml version="1.0" encoding="UTF-8"?>
<svg width="70px" height="77px" viewBox="0 0 70 77" version="1.1" xmlns="http://www.w3.org/2000/svg" xmlns:xlink="http://www.w3.org/1999/xlink">
    <g id="Website" stroke="none" stroke-width="1" fill="none" fill-rule="evenodd">
        <g id="Web-layout---Desktop-HD" transform="translate(-404.000000, -188.000000)" fill="#90A4AE">
            <g id="Add-member" transform="translate(151.000000, 0.000000)">
                <g id="Title" transform="translate(155.000000, 188.000000)">
                    <path d="M133.353535,38.146789 C128.083795,38.146789 123.584745,36.2836801 119.855776,32.5586816 C116.126806,28.8336831 114.262626,24.338689 114.262626,19.0730897 C114.262626,13.8081 116.126806,9.31310589 119.855776,5.58749774 C123.584135,1.86249925 128.083795,7.10542736e-15 133.353535,7.10542736e-15 C138.623276,7.10542736e-15 143.122936,1.86249925 146.851295,5.58749774 C150.580265,9.31310589 152.444444,13.8081 152.444444,19.0730897 C152.444444,24.338689 150.580265,28.8336831 146.851295,32.5586816 C143.123546,36.2836801 138.624496,38.146789 133.353535,38.146789 Z M167.725409,57.6080453 C167.907859,59.6965223 168,61.8673911 168,64.1224824 C168,68.1334324 166.790578,71.2826263 164.370515,73.5694537 C161.950452,75.8568914 158.735904,77 154.725653,77 L111.274347,77 C107.264096,77 104.048938,75.8568914 101.629485,73.5694537 C99.2100317,71.2826263 98,68.1334324 98,64.1224824 C98,61.8686117 98.0909202,59.6971326 98.2733708,57.6086556 C98.4558213,55.5201786 98.8530632,53.2327409 99.4663168,50.7469528 C100.07957,48.2611646 100.866732,46.064663 101.827801,44.158058 C102.78887,42.2520633 104.131316,40.5450293 105.854528,39.0363458 C107.57835,37.5282725 109.56639,36.525535 111.820478,36.0281332 C111.091286,37.7516456 110.726995,39.7406422 110.726995,41.994513 L110.726995,52.0884117 C108.804857,52.7518175 107.263485,53.9114044 106.10349,55.5690033 C104.943495,57.2266023 104.363193,59.0666836 104.363193,61.0886369 C104.363193,63.740429 105.291311,65.9949101 107.146937,67.8508594 C109.003173,69.7074191 111.256651,70.6350886 113.907981,70.6350886 C116.559312,70.6350886 118.8134,69.7068088 120.669636,67.8508594 C122.525873,65.9949101 123.453381,63.740429 123.453381,61.0886369 C123.453381,59.0660732 122.865145,57.2266023 121.688064,55.5690033 C120.510984,53.9114044 118.978765,52.7518175 117.089578,52.0884117 L117.089578,41.994513 C117.089578,39.9396029 117.503905,38.398573 118.33256,37.3702025 C122.707103,40.8184477 127.596046,42.54196 132.998169,42.54196 C138.400903,42.54196 143.289846,40.8184477 147.664389,37.3702025 C148.493044,38.398573 148.906761,39.9396029 148.906761,41.994513 L148.906761,45.1772738 C145.393215,45.1772738 142.394679,46.4198627 139.908714,48.9062611 C137.423359,51.3920493 136.180376,54.3923278 136.180376,57.905876 L136.180376,62.3318361 C135.120454,63.2930726 134.590188,64.4697482 134.590188,65.8618627 C134.590188,67.188064 135.053942,68.3146942 135.98206,69.2423637 C136.910178,70.1706435 138.036612,70.6344783 139.361972,70.6344783 C140.688553,70.6344783 141.814987,70.1706435 142.743105,69.2423637 C143.671223,68.3146942 144.134977,67.188064 144.134977,65.8618627 C144.134977,64.4697482 143.604711,63.2930726 142.544179,62.3318361 L142.544179,57.905876 C142.544179,56.1823637 143.174518,54.6895482 144.433366,53.4310913 C145.692824,52.1708034 147.184769,51.5409646 148.908592,51.5409646 C150.631804,51.5409646 152.123749,52.1708034 153.382597,53.4310913 C154.642055,54.6895482 155.272394,56.1823637 155.272394,57.905876 L155.272394,62.3318361 C154.212473,63.2930726 153.682206,64.4697482 153.682206,65.8618627 C153.682206,67.188064 154.14535,68.3146942 155.073468,69.2423637 C156.000976,70.1706435 157.128021,70.6344783 158.453991,70.6344783 C159.780571,70.6344783 160.906395,70.1706435 161.834513,69.2423637 C162.762021,68.3146942 163.226385,67.188064 163.226385,65.8618627 C163.226385,64.4697482 162.696119,63.2930726 161.636197,62.3318361 L161.636197,57.905876 C161.636197,55.651395 161.063827,53.5385056 159.920308,51.5659873 C158.777398,49.5940793 157.227484,48.0438947 155.272394,46.9172645 C155.272394,46.5858667 155.281547,45.8815703 155.297413,44.8037648 C155.313278,43.7259593 155.313278,42.9313371 155.297413,42.4168467 C155.281547,41.9023563 155.238223,41.2145382 155.172931,40.352782 C155.10764,39.4916362 154.990481,38.7128821 154.825116,38.0165196 C154.659751,37.3201572 154.443739,36.6573617 154.178301,36.0275229 C156.431169,36.5243144 158.42104,37.5276622 160.143642,39.0357355 C161.867464,40.544419 163.209299,42.251453 164.171589,44.1574477 C165.132048,46.0640526 165.919819,48.259944 166.532463,50.7463425 C167.145716,53.2321306 167.542348,55.5195683 167.725409,57.6080453 Z M111.434343,61.1058094 C111.434343,60.2450163 111.7492,59.4994427 112.378912,58.8709175 C113.008625,58.2417826 113.754273,57.9266055 114.615857,57.9266055 C115.47744,57.9266055 116.223088,58.2417826 116.853411,58.8709175 C117.483123,59.4994427 117.79798,60.2450163 117.79798,61.1058094 C117.79798,61.9666025 117.483123,62.7115665 116.853411,63.3407013 C116.223698,63.9698362 115.47805,64.2844037 114.615857,64.2844037 C113.753663,64.2844037 113.008625,63.9698362 112.378912,63.3407013 C111.7492,62.7115665 111.434343,61.9666025 111.434343,61.1058094 Z" id="Dr"></path>
                </g>
            </g>
        </g>
    </g>
</svg>