<?xml version="1.0" encoding="UTF-8"?>
<svg width="13px" height="13px" viewBox="0 0 13 13" version="1.1" xmlns="http://www.w3.org/2000/svg" xmlns:xlink="http://www.w3.org/1999/xlink">
    <!-- Generator: Sketch 54 (76480) - https://sketchapp.com -->
    <title>Minus</title>
    <desc>Created with Sketch.</desc>
    <g id="Website" stroke="none" stroke-width="1" fill="none" fill-rule="evenodd">
        <g id="Web-layout---Desktop-HD" transform="translate(-227.000000, -454.000000)" fill="#90A4AE">
            <g id="Task-manager" transform="translate(-2.000000, 0.000000)">
                <g id="Cards" transform="translate(203.000000, 263.000000)">
                    <g id="Thilisanani">
                        <g id="Sticky-task">
                            <g id="Status-alert" transform="translate(25.185520, 186.981308)">
                                <g id="Status" transform="translate(0.000000, 3.280374)">
                                    <g transform="translate(1.045249, 1.186916)" id="Minus">
                                        <path d="M11.3398806,0.660108835 C10.8999289,0.220068242 10.3699347,0 9.75018579,0 L2.25000599,0 C1.63025707,0 1.1002629,0.220068242 0.660119385,0.660108835 C0.220071759,1.10024532 0,1.63023102 0,2.24997003 L0,9.74993408 C0,10.3696731 0.220071759,10.8996588 0.660119385,11.3397953 C1.1002629,11.7799318 1.63025707,12 2.25000599,12 L9.7500899,12 C10.3698388,12 10.899833,11.7799318 11.3397847,11.3397953 C11.7799282,10.8996588 12,10.3696731 12,9.74993408 L12,2.24997003 C12,1.63023102 11.7799282,1.10014943 11.3398806,0.660108835 L11.3398806,0.660108835 Z M10.0000799,6.49992409 C10.0000799,6.63532119 9.95059972,6.75269092 9.85173524,6.85155382 C9.75267898,6.95041672 9.63549916,6.99999201 9.50009989,6.99999201 L2.499996,6.99999201 C2.36459673,6.99999201 2.24741691,6.95041672 2.14845654,6.85155382 C2.04949617,6.75269092 2.00001598,6.63532119 2.00001598,6.49992409 L2.00001598,5.49988413 C2.00001598,5.36448703 2.04949617,5.24730908 2.14845654,5.14835029 C2.24741691,5.0493915 2.36459673,4.9999121 2.499996,4.9999121 L9.50009989,4.9999121 C9.63549916,4.9999121 9.75267898,5.0493915 9.85173524,5.14835029 C9.95059972,5.24730908 10.0000799,5.36448703 10.0000799,5.49988413 L10.0000799,6.49992409 L10.0000799,6.49992409 Z"></path>
                                    </g>
                                </g>
                            </g>
                        </g>
                    </g>
                </g>
            </g>
        </g>
    </g>
</svg>