<?xml version="1.0" encoding="UTF-8"?>
<svg width="11px" height="11px" viewBox="0 0 11 11" version="1.1" xmlns="http://www.w3.org/2000/svg" xmlns:xlink="http://www.w3.org/1999/xlink">
    <g id="Website" stroke="none" stroke-width="1" fill="none" fill-rule="evenodd">
        <g id="Web-layout---Desktop-HD" transform="translate(-1035.000000, -59.000000)" fill="#90A4AE">
            <g id="Task-manager" transform="translate(-2.000000, 0.000000)">
                <g id="Header" transform="translate(200.000000, 47.000000)">
                    <g id="Search" transform="translate(831.000000, 8.000000)">
                        <g id="Inactive" transform="translate(6.000000, 0.000000)">
                            <g id="Magnifying-glass" transform="translate(0.000000, 2.000000)">
                                <path d="M10.7554509,11.5590544 L8.48805796,9.29162794 C9.03452035,8.5027956 9.30787326,7.6234934 9.30787326,6.65396474 C9.30787326,6.02375894 9.18551761,5.42105923 8.94088745,4.84594674 C8.69633843,4.27075312 8.36578345,3.77499447 7.94930365,3.35850852 C7.53282385,2.94202257 7.03715365,2.61146271 6.46204965,2.36691008 C5.88678337,2.12227631 5.28409256,2 4.65389606,2 C4.02369956,2 3.42100874,2.12227631 2.84590474,2.36691008 C2.27071961,2.61146271 1.77496827,2.94202257 1.35848847,3.35850852 C0.942008669,3.77499447 0.611453689,4.27083426 0.366904669,4.84594674 C0.12227451,5.42114037 0,6.02375894 0,6.65396474 C0,7.28417054 0.12227451,7.88670797 0.366904669,8.46198274 C0.611453689,9.03709523 0.942008669,9.53277274 1.35848847,9.94925869 C1.77496827,10.3658258 2.27080074,10.6963045 2.84590474,10.9409383 C3.42108988,11.185572 4.02369956,11.3078483 4.65389606,11.3078483 C5.62357268,11.3078483 6.50278077,11.0344914 7.29160147,10.4880209 L9.55899443,12.748794 C9.71761863,12.9162647 9.91575689,13 10.153896,13 C10.3830289,13 10.5814917,12.9162647 10.7487976,12.748794 C10.9162658,12.5814044 10.9999999,12.3830198 10.9999999,12.1538836 C11.0000811,11.920447 10.9186188,11.7220624 10.7554509,11.5590544 L10.7554509,11.5590544 Z M6.92105607,8.69548229 C6.33081992,9.28932641 5.62060297,9.5862069 4.79023995,9.5862069 C3.95995956,9.5862069 3.24974261,9.28924327 2.65950646,8.69548229 C2.06927031,8.10163817 1.77419355,7.38716297 1.77419355,6.55172414 C1.77419355,5.71636845 2.06935294,5.00172697 2.65950646,4.40796599 C3.24965997,3.81412187 3.95995956,3.51724138 4.79023995,3.51724138 C5.62052034,3.51724138 6.33073729,3.81420501 6.92105607,4.40796599 C7.51129222,5.00172697 7.80645161,5.71636845 7.80645161,6.55172414 C7.80645161,7.38716297 7.51120959,8.10163817 6.92105607,8.69548229 L6.92105607,8.69548229 Z" id="Shape"></path>
                            </g>
                        </g>
                    </g>
                </g>
            </g>
        </g>
    </g>
</svg>