<?xml version="1.0" encoding="UTF-8"?>
<svg width="18px" height="18px" viewBox="0 0 18 18" version="1.1" xmlns="http://www.w3.org/2000/svg" xmlns:xlink="http://www.w3.org/1999/xlink">
    <g id="Website" stroke="none" stroke-width="1" fill="none" fill-rule="evenodd">
        <g id="Web-layout---Desktop-HD" transform="translate(-1273.000000, -56.000000)" fill="#ECEFF1">
            <g id="Task-manager" transform="translate(-2.000000, 0.000000)">
                <g id="Header" transform="translate(200.000000, 47.000000)">
                    <g id="Status-filter" transform="translate(1075.000000, 9.000000)">
                        <g id="Completed-">
                            <path d="M14.078631,0 L3.24886159,0 C2.35398465,0 1.58870772,0.317769236 0.953169245,0.953169245 C0.317769236,1.58870772 5.68434189e-14,2.35398465 5.68434189e-14,3.24886159 L5.68434189e-14,14.0784925 C5.68434189e-14,14.9733695 0.317769236,15.7386464 0.953169245,16.3741849 C1.58870772,17.0097233 2.35398465,17.3274926 3.24886159,17.3274926 L14.0784925,17.3274926 C14.9733695,17.3274926 15.7386464,17.0097233 16.3739079,16.3741849 C17.0094464,15.7386464 17.3272156,14.9733695 17.3272156,14.0784925 L17.3272156,3.24886159 C17.3272156,2.35398465 17.0094464,1.58856925 16.3740464,0.953169245 C15.7387848,0.317769236 14.9735079,0 14.078631,0 Z M7.72740012,13.2099233 C7.58450781,13.3526771 7.4153078,13.4242617 7.21966165,13.4244002 C7.02401549,13.4244002 6.85481549,13.3528156 6.71192318,13.2100617 L2.67341542,9.17141552 C2.53052311,9.02852321 2.45907696,8.85932321 2.45907696,8.66381551 C2.45907696,8.46830782 2.53052311,8.29896935 2.67341542,8.15621551 L3.82416929,7.00546164 C3.9670616,6.86256933 4.13612314,6.79112318 4.3317693,6.79112318 C4.52741545,6.79112318 4.69661545,6.86256933 4.83950776,7.00546164 L7.21980011,9.38561552 L12.4879848,4.11743083 C12.6306002,3.97453852 12.8000771,3.90309237 12.9955848,3.90309237 C13.1910925,3.90309237 13.3602925,3.97453852 13.5031848,4.11743083 L14.6540771,5.26818469 C14.7966925,5.411077 14.8682771,5.58027701 14.8682771,5.7757847 C14.8682771,5.9712924 14.7966925,6.14063086 14.6540771,6.28338471 L7.72740012,13.2099233 Z" id="Shape"></path>
                            <rect id="Rectangle" x="2" y="3" width="13" height="11"></rect>
                        </g>
                    </g>
                </g>
            </g>
        </g>
    </g>
</svg>